:version 1.10
:name ASF
:units
  mass 1
  length 1
  angle deg
:documentation
  ASF file generated by Kaydara
:root
  axis xyz
  order  tx ty tz rx ry rz
  position 0 0 0
  orientation 0 0 0
:bonedata
  begin
    id 1
    name RightUpLegDummy
    direction -0.718183 -0.695806 0.00816078
    length 4.904
    axis 0 0 0 xyz
  end
  begin
    id 2
    name RightUpLeg
    direction -0.00334265 -0.999142 0.0412837
    length 17.4976
    axis -0.59612 0.00940841 -0.192072 xyz
    dof rx ry rz
  end
  begin
    id 3
    name RightLeg
    direction 0.000365068 -0.988824 -0.149089
    length 16.5821
    axis 6.58657 0.0604092 -0.318554 xyz
    dof rx ry rz
  end
  begin
    id 4
    name RightFoot
    direction 0.00079069 -0.460991 0.887405
    length 3.77069
    axis 0.000105557 -0.120464 -0.188919 xyz
    dof rx ry rz
  end
  begin
    id 5
    name RightToes
    direction 0.00124768 -0.014065 0.9999
    length 3.85082
    axis 0.00053932 0.542178 -0.142707 xyz
    dof rx ry rz
  end
  begin
    id 6
    name SpineDummy
    direction 8.3039e-015 1 4.58682e-016
    length 4.6813
    axis 0 0 0 xyz
  end
  begin
    id 7
    name Spine
    direction 4.12799e-006 0.999988 0.00494944
    length 10.1015
    axis -0.00149944 0.000129667 -0.000235877 xyz
    dof rx ry rz
  end
  begin
    id 8
    name Spine1
    direction 0 0 0
    length 0
    axis -0.00160567 0.000129431 -0.000308381 xyz
    dof rx ry rz
  end
  begin
    id 9
    name HEadDummy
    direction 5.38513e-006 0.999999 0.00127044
    length 3.43865
    axis -0.00160567 0.000129431 -0.000308381 xyz
  end
  begin
    id 10
    name HEad
    direction -0.0226495 0.980942 0.192974
    length 5.12695
    axis -0.00160642 -0.114462 -0.000307946 xyz
    dof rx ry rz
  end
  begin
    id 11
    name LeftShoulder1Dummy
    direction 0.99889 -0.0402564 -0.0244456
    length 3.5433
    axis -0.00160567 0.000129431 -0.000308381 xyz
  end
  begin
    id 12
    name LeftShoulder1
    direction 0.999464 -0.00142945 0.0326977
    length 4.05031
    axis 0.393425 -0.0796525 -0.0507861 xyz
    dof rx ry rz
  end
  begin
    id 13
    name LeftArm
    direction 0.998564 -0.000899612 -0.053557
    length 10.3537
    axis -22.9476 0.126974 0.960871 xyz
    dof rx ry rz
  end
  begin
    id 14
    name LeftForeArm
    direction 0.998903 0.00865904 0.0460121
    length 8.70632
    axis -9.91856 -0.0656997 -0.178106 xyz
    dof rx ry rz
  end
  begin
    id 15
    name LeftHand
    direction 0.992938 -0.0411687 0.11126
    length 5.32135
    axis -0.00981066 -0.00340928 0.18486 xyz
    dof rx ry rz
  end
  begin
    id 16
    name RightShoulderDummy
    direction -0.998891 -0.0402456 -0.0244411
    length 3.5433
    axis -0.00160567 0.000129431 -0.000308381 xyz
  end
  begin
    id 17
    name RightShoulder
    direction -0.999353 -0.00388479 0.0357579
    length 4.05031
    axis 1.48787 0.256014 0.157284 xyz
    dof rx ry rz
  end
  begin
    id 18
    name RightArm
    direction -0.998583 -0.000660455 -0.0532032
    length 10.3947
    axis -22.4211 -0.109147 -0.943573 xyz
    dof rx ry rz
  end
  begin
    id 19
    name RightForeArm
    direction -0.998898 0.00868588 0.0461311
    length 8.68355
    axis -9.92343 0.0658342 0.178556 xyz
    dof rx ry rz
  end
  begin
    id 20
    name RightHand
    direction -0.992843 -0.0414545 0.112004
    length 5.28593
    axis -0.00982288 0.00332907 -0.185539 xyz
    dof rx ry rz
  end
  begin
    id 21
    name LeftUpLegDummy
    direction 0.718183 -0.695806 0.00816078
    length 4.904
    axis 0 0 0 xyz
  end
  begin
    id 22
    name LeftUpLeg
    direction 0.00445374 -0.999139 0.0412407
    length 17.4976
    axis -0.593655 -0.0138231 0.255969 xyz
    dof rx ry rz
  end
  begin
    id 23
    name LeftLeg
    direction -0.00154847 -0.988829 -0.149046
    length 16.5821
    axis 6.5841 -0.0555156 0.250722 xyz
    dof rx ry rz
  end
  begin
    id 24
    name LeftFoot
    direction -0.00417678 -0.460985 0.887398
    length 3.77069
    axis 5.53694e-005 4.88088e-005 -0.000136194 xyz
    dof rx ry rz
  end
  begin
    id 25
    name LeftToes
    direction 0.00818061 -0.00485256 0.999955
    length 3.85048
    axis 6.41179e-005 4.88477e-005 -0.000136145 xyz
    dof rx ry rz
  end
:hierarchy
  begin
    root RightUpLegDummy SpineDummy LeftUpLegDummy
    RightUpLegDummy RightUpLeg
    RightUpLeg RightLeg
    RightLeg RightFoot
    RightFoot RightToes
    SpineDummy Spine
    Spine Spine1
    Spine1 HEadDummy LeftShoulder1Dummy RightShoulderDummy
    HEadDummy HEad
    LeftShoulder1Dummy LeftShoulder1
    LeftShoulder1 LeftArm
    LeftArm LeftForeArm
    LeftForeArm LeftHand
    RightShoulderDummy RightShoulder
    RightShoulder RightArm
    RightArm RightForeArm
    RightForeArm RightHand
    LeftUpLegDummy LeftUpLeg
    LeftUpLeg LeftLeg
    LeftLeg LeftFoot
    LeftFoot LeftToes
  end

:SAMPLES-PER-SECOND 30
:FULLY-SPECIFIED
:DEGREES
104
root  -39.0156 38.1994 -0.377045 64.3374 85.6589 62.6214
RightUpLeg  9.11252 0.305292 -3.42132
RightLeg  28.4725 4.96118 -2.76159
RightFoot  -1.20098 -0.74315 7.55254
RightToes  -6.40286e-010 -1.59028e-015 9.93923e-017
Spine  -7.45232 2.81505 0.924589
Spine1  11.5151 4.78682 -7.44358
HEad  -10.126 -3.97309 3.53189
LeftShoulder1  9.93923e-017 0 1.22299e-017
LeftArm  -5.58403 50.4603 -69.216
LeftForeArm  -6.13564 -3.68923 -6.77062
LeftHand  1.01805 7.30122 -5.43336
RightShoulder  1.98785e-016 -4.96962e-017 1.55301e-017
RightArm  22.3563 -30.3133 87.7341
RightForeArm  -47.4354 24.1053 -22.6137
RightHand  1.11681 -10.0559 -5.83805
LeftUpLeg  -24.7282 -6.85985 -3.99544
LeftLeg  8.49605 -2.64785 1.0276
LeftFoot  12.2307 0.0356831 0.0229359
LeftToes  8.73142e-011 -6.07963e-011 6.03181e-012
105
root  -37.5273 38.1431 -0.53528 82.4749 84.4347 80.9852
RightUpLeg  4.8078 -1.62283 -5.91348
RightLeg  38.1335 5.08202 -4.17382
RightFoot  11.0106 -0.895456 4.20043
RightToes  -6.40286e-010 -1.59028e-015 9.93923e-017
Spine  -6.10701 1.71574 -2.12948
Spine1  10.4885 3.48949 -7.17512
HEad  -9.9243 -3.6238 3.41136
LeftShoulder1  9.93923e-017 0 1.22299e-017
LeftArm  -3.25675 46.5639 -71.7628
LeftForeArm  -8.83705 -4.7293 -7.12294
LeftHand  1.01068 7.22396 -5.85426
RightShoulder  1.98785e-016 -4.96962e-017 1.55301e-017
RightArm  25.5097 -33.7976 89.2248
RightForeArm  -50.9413 22.0391 -21.0885
RightHand  1.10979 -10.0735 -5.54962
LeftUpLeg  -24.3536 -9.648 -5.87882
LeftLeg  13.239 -1.5677 2.07593
LeftFoot  8.08017 -0.177259 1.0482
LeftToes  8.73142e-011 -6.07963e-011 6.03181e-012
106
root  -36.1689 38.0907 -0.63638 85.3684 83.428 84.0506
RightUpLeg  -0.796044 -1.44815 -6.85802
RightLeg  47.454 5.2772 -5.8834
RightFoot  19.4137 -0.638967 2.15042
RightToes  -6.40286e-010 -1.59028e-015 9.93923e-017
Spine  -5.05894 1.28217 -4.36629
Spine1  10.1922 2.73882 -6.96829
HEad  -10.3262 -3.28695 2.92482
LeftShoulder1  9.93923e-017 0 1.22299e-017
LeftArm  0.783648 41.3346 -74.4579
LeftForeArm  -12.8778 -6.47559 -7.30371
LeftHand  0.996736 7.07712 -5.308
RightShoulder  1.98785e-016 -4.96962e-017 1.55301e-017
RightArm  27.5647 -36.8862 90.0306
RightForeArm  -53.444 20.4449 -18.1024
RightHand  1.1331 -10.3843 -4.9627
LeftUpLeg  -23.6861 -11.1749 -7.16299
LeftLeg  17.0972 -0.661621 3.1869
LeftFoot  3.84111 -0.167487 1.16523
LeftToes  8.73142e-011 -6.07963e-011 6.03181e-012
107
root  -34.7666 38.2344 -0.685674 80.1556 83.1497 79.1657
RightUpLeg  -6.19011 -0.0770218 -6.41845
RightLeg  54.165 5.49198 -7.41055
RightFoot  20.2198 -0.469082 1.56602
RightToes  -6.40286e-010 -1.59028e-015 9.93923e-017
Spine  -4.79237 1.16349 -5.72177
Spine1  10.5828 2.30942 -6.47072
HEad  -10.649 -2.58008 2.39842
LeftShoulder1  9.93923e-017 0 1.22299e-017
LeftArm  4.41814 36.1679 -76.7151
LeftForeArm  -17.1655 -9.20561 -6.57617
LeftHand  0.969811 6.83053 -3.84701
RightShoulder  1.98785e-016 -4.96962e-017 1.55301e-017
RightArm  22.9562 -39.3138 89.9483
RightForeArm  -47.2923 19.7144 -11.4366
RightHand  1.13306 -10.6237 -4.08172
LeftUpLeg  -21.5097 -10.1198 -7.98981
LeftLeg  18.4168 -1.08871 3.6798
LeftFoot  1.00647 -0.117525 0.953423
LeftToes  8.73142e-011 -6.07963e-011 6.03181e-012
108
root  -33.2305 38.5609 -0.727902 77.0049 83.8296 76.508
RightUpLeg  -10.5612 0.832587 -4.93961
RightLeg  57.3899 6.17764 -7.35301
RightFoot  16.3983 -0.341725 1.31746
RightToes  -6.40286e-010 -1.59028e-015 9.93923e-017
Spine  -5.08072 0.662184 -6.01593
Spine1  10.9345 1.51355 -5.5389
HEad  -10.1025 -1.51622 2.05566
LeftShoulder1  9.93923e-017 0 1.22299e-017
LeftArm  8.52759 31.997 -78.2744
LeftForeArm  -22.7978 -13.2424 -4.26581
LeftHand  0.947773 6.66723 -2.58948
RightShoulder  1.98785e-016 -4.96962e-017 1.55301e-017
RightArm  16.6222 -41.918 89.4245
RightForeArm  -37.8682 18.1169 -4.88585
RightHand  1.07801 -10.4648 -3.1287
LeftUpLeg  -18.0046 -8.02382 -8.01161
LeftLeg  17.8202 -2.70942 3.44103
LeftFoot  -1.27163 -0.105411 0.954033
LeftToes  8.73142e-011 -6.07963e-011 6.03181e-012
109
root  -31.6663 38.8821 -0.770177 81.1615 85.1218 81.1215
RightUpLeg  -14.1921 0.930385 -3.10109
RightLeg  57.5658 7.34911 -5.36857
RightFoot  12.433 -0.40378 1.79288
RightToes  -6.40286e-010 -1.59028e-015 9.93923e-017
Spine  -5.32158 -0.297621 -5.94428
Spine1  10.8601 0.194548 -4.32477
HEad  -8.78799 -0.437304 1.81985
LeftShoulder1  9.93923e-017 0 1.22299e-017
LeftArm  16.5243 28.7131 -79.4231
LeftForeArm  -32.7544 -18.3579 0.444861
LeftHand  0.94515 6.65252 -2.48957
RightShoulder  1.98785e-016 -4.96962e-017 1.55301e-017
RightArm  13.2787 -45.4065 88.5231
RightForeArm  -32.0502 16.6313 -1.67646
RightHand  1.00757 -10.0897 -2.37855
LeftUpLeg  -14.333 -6.1514 -7.39417
LeftLeg  16.807 -5.12145 2.98398
LeftFoot  -3.51007 -0.0976224 1.00376
LeftToes  8.73142e-011 -6.07963e-011 6.03181e-012
110
root  -30.1387 39.0968 -0.792559 91.5547 86.3476 91.8689
RightUpLeg  -17.4785 0.877889 -1.45128
RightLeg  55.4498 8.58923 -2.8453
RightFoot  9.42284 -0.46917 2.36557
RightToes  -6.40286e-010 -1.59028e-015 9.93923e-017
Spine  -5.33166 -1.33352 -6.225
Spine1  10.5159 -1.27634 -2.85821
HEad  -7.53574 0.490406 1.55113
LeftShoulder1  9.93923e-017 0 1.22299e-017
LeftArm  27.0886 25.7938 -80.2868
LeftForeArm  -45.1882 -22.6581 7.48622
LeftHand  0.941368 6.58554 -3.3162
RightShoulder  1.98785e-016 -4.96962e-017 1.55301e-017
RightArm  14.2164 -49.508 86.9459
RightForeArm  -32.0544 16.6785 -1.8494
RightHand  0.977157 -9.91068 -2.06014
LeftUpLeg  -11.0948 -4.04363 -6.48193
LeftLeg  16.1129 -8.06499 2.45018
LeftFoot  -5.5142 -0.10216 1.25271
LeftToes  8.73142e-011 -6.07963e-011 6.03181e-012
111
root  -28.6224 39.2273 -0.789748 105.987 87.2599 106.607
RightUpLeg  -20.4145 0.753886 -0.16287
RightLeg  51.3324 9.34507 -1.2558
RightFoot  6.01309 -0.483955 2.89019
RightToes  -6.40286e-010 -1.59028e-015 9.93923e-017
Spine  -5.36156 -2.28642 -6.81485
Spine1  10.2292 -2.65447 -1.04723
HEad  -6.94924 1.36889 1.2295
LeftShoulder1  9.93923e-017 0 1.22299e-017
LeftArm  34.6022 22.8595 -80.6136
LeftForeArm  -53.7639 -25.1292 14.2222
LeftHand  0.922536 6.37846 -3.97885
RightShoulder  1.98785e-016 -4.96962e-017 1.55301e-017
RightArm  18.9321 -53.5158 84.6685
RightForeArm  -36.6443 17.9004 -4.42586
RightHand  0.9919 -9.98004 -2.27849
LeftUpLeg  -8.03474 -1.85859 -5.24556
LeftLeg  15.5095 -10.6014 1.72564
LeftFoot  -7.34203 -0.126013 1.98048
LeftToes  8.73142e-011 -6.07963e-011 6.03181e-012
112
root  -27.1267 39.3027 -0.768953 125.382 87.7681 126.257
RightUpLeg  -22.8632 0.105432 0.709343
RightLeg  45.1623 9.4828 -0.692595
RightFoot  3.00412 -0.472117 3.33673
RightToes  -6.40286e-010 -1.59028e-015 9.93923e-017
Spine  -5.49546 -3.20549 -7.47803
Spine1  10.1996 -3.9254 0.943028
HEad  -7.03086 2.26082 0.871191
LeftShoulder1  9.93923e-017 0 1.22299e-017
LeftArm  34.8784 19.7426 -80.2092
LeftForeArm  -54.018 -27.2529 17.6682
LeftHand  0.909236 6.26748 -3.77662
RightShoulder  1.98785e-016 -4.96962e-017 1.55301e-017
RightArm  24.6292 -56.9687 81.9628
RightForeArm  -41.8961 19.0636 -7.90624
RightHand  1.01407 -10.0302 -2.79003
LeftUpLeg  -4.91402 -0.418347 -3.93004
LeftLeg  14.6587 -12.1221 1.11752
LeftFoot  -9.22019 -0.124747 2.65463
LeftToes  8.73142e-011 -6.07963e-011 6.03181e-012
113
root  -25.6732 39.2853 -0.725713 141.126 87.7833 142.128
RightUpLeg  -24.6316 -0.749066 1.05986
RightLeg  36.9874 9.21921 -0.540443
RightFoot  2.07281 -0.415528 3.13178
RightToes  -6.40286e-010 -1.59028e-015 9.93923e-017
Spine  -5.71466 -4.03151 -8.28795
Spine1  10.4354 -4.99086 2.64992
HEad  -7.51889 3.09917 0.512888
LeftShoulder1  9.93923e-017 0 1.22299e-017
LeftArm  31.2496 16.6684 -79.3267
LeftForeArm  -49.9906 -29.8256 18.6216
LeftHand  0.916929 6.38196 -3.06699
RightShoulder  1.98785e-016 -4.96962e-017 1.55301e-017
RightArm  28.3158 -59.5854 79.1606
RightForeArm  -44.7281 19.5823 -10.4782
RightHand  1.02819 -10.0373 -3.19669
LeftUpLeg  -2.07336 0.278466 -3.01682
LeftLeg  14.0356 -13.0072 0.89413
LeftFoot  -11.1478 -0.0868719 2.72057
LeftToes  8.73142e-011 -6.07963e-011 6.03181e-012
114
root  -24.2351 39.193 -0.662054 145.265 87.7746 146.19
RightUpLeg  -25.4646 -0.811983 0.991847
RightLeg  26.7105 8.7123 -0.431433
RightFoot  2.82983 -0.369996 2.65281
RightToes  -6.40286e-010 -1.59028e-015 9.93923e-017
Spine  -6.14957 -4.67606 -8.98375
Spine1  10.8576 -5.75026 3.80486
HEad  -8.09398 3.83 0.277249
LeftShoulder1  9.93923e-017 0 1.22299e-017
LeftArm  28.9557 14.1236 -78.3543
LeftForeArm  -47.7394 -31.9138 19.6042
LeftHand  0.930479 6.52131 -2.65791
RightShoulder  1.98785e-016 -4.96962e-017 1.55301e-017
RightArm  28.6274 -61.1832 76.511
RightForeArm  -44.4331 19.5706 -10.9315
RightHand  1.05328 -10.1957 -3.3692
LeftUpLeg  0.460354 0.685638 -2.42486
LeftLeg  13.5792 -13.4825 0.85874
LeftFoot  -12.741 -0.0518239 2.56389
LeftToes  8.73142e-011 -6.07963e-011 6.03181e-012
115
root  -22.7892 39.1256 -0.59834 151.739 87.9603 152.415
RightUpLeg  -25.1029 0.545128 0.604832
RightLeg  14.1156 7.89463 0.0405978
RightFoot  4.24648 -0.393769 2.59123
RightToes  -6.40286e-010 -1.59028e-015 9.93923e-017
Spine  -6.7925 -5.20882 -8.91267
Spine1  11.4009 -6.35963 4.60216
HEad  -8.43967 4.42804 0.196414
LeftShoulder1  9.93923e-017 0 1.22299e-017
LeftArm  27.2133 12.3787 -77.4723
LeftForeArm  -46.3221 -33.2469 20.2582
LeftHand  0.927932 6.49135 -2.81639
RightShoulder  1.98785e-016 -4.96962e-017 1.55301e-017
RightArm  25.6327 -61.9799 74.07
RightForeArm  -41.3218 19.1272 -9.34346
RightHand  1.08095 -10.4218 -3.36401
LeftUpLeg  3.16805 1.12482 -1.61667
LeftLeg  12.3089 -13.62 0.81365
LeftFoot  -13.707 -0.0335586 2.42578
LeftToes  8.73142e-011 -6.07963e-011 6.03181e-012
